<?xml version="1.0" standalone="no"?><!DOCTYPE svg PUBLIC "-//W3C//DTD SVG 1.1//EN" "http://www.w3.org/Graphics/SVG/1.1/DTD/svg11.dtd"><svg t="1778639868547" class="icon" viewBox="0 0 1024 1024" version="1.1" xmlns="http://www.w3.org/2000/svg" p-id="1930" xmlns:xlink="http://www.w3.org/1999/xlink" width="200" height="200"><path fill="#475569" d="M627.51515 218.126981c28.580078 4.041312 56.567985 11.220096 84.223444 19.71828a576.33894 576.33894 0 0 1 136.677394 62.31309c2.981637 1.849238 6.960615 3.023193 10.472089 3.023192 50.324209 0.20778 100.62764 0.135057 150.910294 0.176613 4.051701 0 8.082625 0.425948 12.123937 0.654506 0 0.986953 0.145446 1.402512-0.020778 1.631069-2.347909 3.615364-4.726985 7.178784-7.085283 10.783759-17.069091 26.180224-31.655216 53.56557-40.267678 83.839052-0.935008 3.25175-1.132399 5.973662 1.070065 9.163079 44.797273 64.328551 59.092507 134.952823 40.371568 211.083254-16.414585 66.769961-54.68758 118.82913-112.845079 155.689223-41.566301 26.356837-87.485583 38.906722-136.542337 39.176836a238.302376 238.302376 0 0 1-61.253414-7.864456c-49.056754-12.726498-91.111337-37.182152-125.768967-74.218859-4.57115-4.862042-8.872187-9.942252-13.744617-15.438021-18.326157 27.312623-36.361423 54.17852-54.833026 81.750867l-53.929184-80.59769c-1.225899 0.644117-1.579125 0.716839-1.818072 0.945396a8.363127 8.363127 0 0 0-1.070064 1.12201c-41.919526 49.50348-94.653978 79.849684-158.899418 89.999716-35.738084 5.661993-71.133332 3.625753-105.842907-5.942495-49.191811-13.51606-90.997058-39.467727-124.771625-77.7615C31.665709 689.932025 11.137088 646.464542 3.428467 597.044173c-8.820242-46.127062 1.921961-90.602277 4.602317-101.396424 7.770956-31.374713 21.318183-60.183349 39.914453-86.675243 1.309011-1.880405 1.766126-5.204878 1.142788-7.448897-7.583954-27.811294-20.653288-53.108455-35.956253-77.335552-3.885478-6.160664-8.53974-11.864213-12.840777-17.775542v-2.057017c0.862285 0.10389 1.714181 0.270113 2.555689 0.270113 51.487775 0.020778 102.96516 0.041556 154.452935-0.062334 2.244019 0 4.737374-0.924619 6.648946-2.150518 36.174421-23.208977 74.717529-41.597468 115.213765-55.913479a626.102145 626.102145 0 0 1 89.428322-24.237486 716.423919 716.423919 0 0 1 88.95043-11.677211c72.920236-5.610048 131.202402 2.108963 169.974068 7.542398z m-64.54672 340.041637c0 113.063247 91.734675 205.43165 204.392752 204.995313 113.084025-0.40517 204.403141-90.176329 204.320029-204.486253-0.083112-117.800621-95.640931-206.356269-208.704178-204.060305-111.619179 2.316742-198.990484 92.285291-200.008603 203.551245zM256.379302 353.8382c-109.977721-0.955786-205.867987 90.830834-203.946026 207.748392 1.786904 109.032324 91.651563 201.46306 206.231601 200.476107 112.034738-0.955786 202.086399-92.441126 202.294178-203.229186a203.894081 203.894081 0 0 0-204.579753-204.995313z m10.139642-53.337013c62.126088 3.791977 116.699389 25.442607 162.805673 67.372522 46.012783 41.846803 72.972181 94.051417 82.768988 155.439888 10.077309-60.661242 36.330256-112.377574 81.480754-153.808818 45.223221-41.4728 99.069294-63.237709 160.177262-67.840026-72.515066-32.236999-148.977944-45.929671-227.684841-47.446463-89.4491-1.755737-176.45679 11.427876-259.547836 46.282897z" p-id="1931"></path><path fill="#2563eb" d="M766.945623 429.179068c69.969766-0.114279 126.641641 56.256316 126.641641 126.153359 0 70.167157-55.7057 124.408011-121.426374 126.911755-73.398129 2.815413-132.127021-55.664144-132.106244-126.600086 0.062334-71.746282 59.206785-127.649372 126.890977-126.465028z m82.53004 126.465028c-0.031167-45.607613-36.90165-82.675486-82.197593-82.675486-45.815393 0-83.111824 36.870483-83.298825 82.343039-0.166224 45.275166 37.317209 82.9456 82.706653 83.070268 45.462167 0.176613 82.810543-37.213319 82.789765-82.737821zM253.678167 429.179068c69.928211-0.072723 126.683197 56.401761 126.506585 126.288416-0.197391 70.738551-55.955035 123.795061-120.522533 126.735142-73.689021 3.366029-133.145141-55.373252-133.010085-126.693586 0.145446-72.255342 59.695067-127.535093 127.026033-126.329972z m82.43654 126.184526c-0.135057-45.888116-37.244486-82.467707-83.568938-82.384595-44.682994 0.083112-82.124871 37.795102-82.020981 82.644319 0.114279 45.368667 37.514599 82.675486 83.028712 82.800155 45.23361 0.10389 82.675486-37.566544 82.561207-83.059879z" p-id="1932"></path><path fill="#1e3a8a" d="M767.007956 513.662236c23.188199-0.020778 42.200028 19.001441 41.98186 42.054583-0.228558 23.105087-18.918329 41.826025-41.722135 41.836414-23.47909 0-42.355863-18.554715-42.303918-41.545522 0.041556-23.853093 18.378102-42.324696 42.044193-42.345475zM253.459999 513.288233a42.335085 42.335085 0 0 1 42.553253 42.251974c0.093501 23.271311-19.001441 42.376641-42.428585 42.428585-23.98815 0.051945-42.49092-18.481992-42.470142-42.594809 0-23.676481 18.461214-42.054583 42.345474-42.08575z" p-id="1933"></path></svg>